<svg width="1680" height="508" viewBox="0 0 1680 508" fill="none" xmlns="http://www.w3.org/2000/svg">
<g filter="url(#filter0_d)">
<rect x="-1" width="1681" height="500" fill="#405FCB"/>
</g>
<mask id="mask0" mask-type="alpha" maskUnits="userSpaceOnUse" x="-1" y="0" width="1681" height="500">
<rect x="-1" width="1681" height="500" fill="#405FCB"/>
</mask>
<g mask="url(#mask0)">
<g opacity="0.04" filter="url(#filter1_d)">
<path d="M490.46 368.661C495.124 357.781 499.686 350.483 504.214 346.766C509.493 342.769 516.022 340.78 522.632 341.157C530.684 341.03 538.468 344.048 544.329 349.57C550.212 354.755 553.554 362.239 553.487 370.08C553.457 376.073 552.022 381.976 549.296 387.313L546.491 393.834L477.381 545.414C470.623 560.619 460.372 568.233 446.628 568.256C440.234 568.568 433.914 566.763 428.65 563.12C423.08 558.277 418.697 552.219 415.842 545.414L344.873 394.308L342.135 388.158C339.536 382.44 338.111 376.258 337.945 369.979C337.861 362.149 341.177 354.666 347.036 349.469C352.749 344.015 360.36 340.998 368.259 341.055C375.057 340.643 381.773 342.721 387.15 346.901C391.645 350.989 396.41 358.119 401.411 368.661L446.189 471.719L490.46 368.661Z" fill="white"/>
<path fill-rule="evenodd" clip-rule="evenodd" d="M734.83 365.046C743.547 371.86 750.906 380.25 756.526 389.78C761.859 398.696 764.673 408.89 764.671 419.278C764.871 425.432 762.802 431.445 758.858 436.173C753.196 441.877 746.452 446.391 739.021 449.452L635.474 495.271C644.689 503.521 656.663 508.018 669.032 507.874C675.154 507.889 681.234 506.861 687.011 504.833C693.479 502.399 699.532 498.979 704.956 494.696C708.044 492.281 711.457 490.314 715.094 488.851C718.162 487.752 721.399 487.203 724.658 487.229C733.027 486.97 741.132 490.173 747.064 496.082C752.903 501.865 756.105 509.795 755.918 518.011C755.956 524.429 753.995 530.7 750.308 535.953C745.437 542.482 739.44 548.088 732.6 552.51C723.493 558.906 713.369 563.716 702.658 566.736C691.748 569.949 680.438 571.598 669.066 571.635C653.804 571.695 638.703 568.516 624.761 562.309C597.035 550.093 574.905 527.918 562.748 500.17C550.393 472.029 550.308 440.017 562.511 411.811C568.419 398.278 576.823 385.978 587.283 375.555C597.696 365.211 609.932 356.883 623.375 350.99C648.775 339.891 677.449 338.876 703.57 348.151C714.85 352.021 725.413 357.73 734.83 365.046ZM614.318 446.614L613.575 455.095L706.341 415.359L702.961 410.324C696.371 400.119 685.692 394.916 671.161 394.916C641.638 394.714 616.905 417.208 614.318 446.614Z" fill="white"/>
<path d="M787.751 295.473V288.479C787.537 279.239 790.683 270.234 796.605 263.137C802.34 256.892 810.538 253.492 819.011 253.845C827.523 253.49 835.741 256.991 841.383 263.373C847.206 270.355 850.207 279.262 849.798 288.344V530.952C850.102 542.745 847.533 551.936 842.092 558.457C836.333 565.124 827.808 568.743 819.011 568.256C810.424 568.555 802.141 565.057 796.368 558.693C790.425 551.768 787.343 542.839 787.751 533.723V295.473Z" fill="white"/>
<path fill-rule="evenodd" clip-rule="evenodd" d="M1034.25 350.99C1020.11 344.84 1004.85 341.687 989.437 341.731L989.403 341.562C942.473 341.16 899.973 369.213 881.903 412.52C875.786 427.134 872.693 442.835 872.812 458.677C872.702 473.821 875.885 488.809 882.139 502.603C888.168 516.01 896.624 528.187 907.08 538.521C929 559.809 958.372 571.692 988.93 571.635C1004.32 571.728 1019.57 568.633 1033.71 562.546C1047.42 556.665 1059.91 548.276 1070.54 537.812C1081.15 527.365 1089.66 514.976 1095.59 501.319C1101.64 487.468 1104.73 472.507 1104.68 457.393C1104.8 441.846 1101.7 426.442 1095.59 412.149C1083.78 384.627 1061.81 362.72 1034.25 350.99ZM968.452 407.959C975.086 405.138 982.229 403.711 989.438 403.769C996.416 403.725 1003.33 405.153 1009.71 407.959C1022.3 413.184 1032.38 423.077 1037.83 435.565C1040.65 442.116 1042.08 449.18 1042.02 456.311C1042.05 463.287 1040.62 470.192 1037.83 476.585C1035.14 482.803 1031.25 488.43 1026.38 493.142C1021.47 497.866 1015.74 501.657 1009.48 504.326C1003.09 507.135 996.181 508.574 989.202 508.55C982.244 508.589 975.349 507.234 968.925 504.563C962.645 502.025 956.909 498.309 952.028 493.615C947.21 488.957 943.332 483.416 940.605 477.295C937.817 471.139 936.388 464.454 936.414 457.697C936.336 450.368 937.679 443.093 940.368 436.274C942.932 429.952 946.735 424.208 951.554 419.379C956.411 414.535 962.146 410.659 968.452 407.959Z" fill="white"/>
<path d="M1265.78 465.536C1265.91 458.878 1265.61 452.218 1264.86 445.6C1264.17 441.449 1263.03 437.383 1261.49 433.47C1258.53 427.089 1253.75 421.735 1247.73 418.095C1241.7 414.146 1234.66 412.033 1227.45 412.013C1217.17 411.77 1207.3 416.027 1200.42 423.671C1193.29 431.406 1189.45 441.608 1189.71 452.121V533.723C1189.89 542.918 1186.75 551.871 1180.85 558.93C1174.98 564.932 1166.93 568.295 1158.53 568.251C1150.13 568.206 1142.12 564.757 1136.31 558.693C1130.35 551.775 1127.27 542.841 1127.69 533.723V458.068C1127.44 444.718 1129.19 431.405 1132.86 418.568C1136.54 407.143 1142.26 396.483 1149.76 387.11C1158.96 375.383 1170.78 365.965 1184.26 359.606C1197.64 353.127 1212.32 349.777 1227.18 349.807C1244.57 349.875 1261.64 354.488 1276.69 363.187C1292.12 371.793 1305.06 384.249 1314.24 399.342C1319.02 407.51 1322.44 416.4 1324.38 425.664C1326.75 436.927 1327.89 448.417 1327.76 459.927V533.723C1327.93 542.916 1324.79 551.863 1318.9 558.93C1313.33 565.132 1305.3 568.548 1296.97 568.256C1288.39 568.563 1280.11 565.063 1274.36 558.693C1268.39 551.78 1265.3 542.846 1265.71 533.723V465.536H1265.78Z" fill="white"/>
<path d="M1374.7 311.321V304.326C1374.43 295.057 1377.58 286.013 1383.55 278.917C1389.38 272.767 1397.6 269.471 1406.06 269.895C1414.49 269.644 1422.6 273.147 1428.19 279.457C1434.14 286.367 1437.22 295.287 1436.81 304.394V344.434H1450.33C1458.49 344.319 1466.43 347.123 1472.7 352.341C1478.35 357.443 1481.43 364.806 1481.08 372.412C1481.28 380.031 1478.13 387.355 1472.46 392.449C1466.4 397.867 1458.46 400.714 1450.33 400.39H1436.81V533.723C1437.01 542.921 1433.87 551.879 1427.96 558.93C1422.09 564.932 1414.03 568.295 1405.64 568.251C1397.24 568.206 1389.22 564.757 1383.42 558.693C1377.44 551.784 1374.32 542.853 1374.7 533.723V400.39H1371.32C1362.78 400.88 1354.37 398.223 1347.66 392.922C1341.83 387.746 1338.66 380.202 1339.04 372.412C1339.04 353.107 1350.86 343.781 1374.49 344.434L1374.7 311.321Z" fill="white"/>
<path fill-rule="evenodd" clip-rule="evenodd" d="M1645.05 350.989C1630.95 344.853 1615.72 341.701 1600.34 341.731L1600.48 341.663C1553.55 341.261 1511.05 369.314 1492.98 412.621C1486.79 427.187 1483.62 442.853 1483.65 458.676C1483.54 473.821 1486.72 488.809 1492.98 502.603C1499.05 515.978 1507.55 528.111 1518.05 538.386C1528.64 548.779 1541.15 557.008 1554.89 562.613C1569.14 568.555 1584.43 571.577 1599.87 571.499C1615.26 571.592 1630.51 568.497 1644.65 562.41C1658.36 556.538 1670.86 548.148 1681.48 537.676C1692.05 527.264 1700.53 514.922 1706.46 501.319C1712.51 487.467 1715.6 472.507 1715.55 457.392C1715.67 441.846 1712.57 426.442 1706.46 412.148C1694.63 384.614 1672.64 362.705 1645.05 350.989ZM1579.36 407.958C1585.99 405.144 1593.13 403.718 1600.34 403.768C1607.34 403.723 1614.27 405.151 1620.69 407.958C1633.15 413.303 1643.09 423.235 1648.43 435.699C1651.27 442.245 1652.69 449.313 1652.62 456.446C1652.67 463.423 1651.24 470.332 1648.43 476.72C1645.74 482.93 1641.86 488.554 1637.01 493.277C1632.1 497.991 1626.37 501.78 1620.11 504.461C1613.72 507.27 1606.82 508.709 1599.84 508.685C1592.88 508.724 1585.98 507.368 1579.56 504.698C1573.28 502.151 1567.55 498.436 1562.66 493.75C1557.85 489.083 1553.98 483.544 1551.24 477.429C1548.47 471.268 1547.04 464.587 1547.05 457.832C1547.03 450.441 1548.45 443.118 1551.24 436.274C1553.81 429.951 1557.63 424.206 1562.46 419.379C1567.3 414.521 1573.04 410.644 1579.36 407.958Z" fill="white"/>
</g>
</g>
<defs>
<filter id="filter0_d" x="-5" y="0" width="1689" height="508" filterUnits="userSpaceOnUse" color-interpolation-filters="sRGB">
<feFlood flood-opacity="0" result="BackgroundImageFix"/>
<feColorMatrix in="SourceAlpha" type="matrix" values="0 0 0 0 0 0 0 0 0 0 0 0 0 0 0 0 0 0 127 0"/>
<feOffset dy="4"/>
<feGaussianBlur stdDeviation="2"/>
<feColorMatrix type="matrix" values="0 0 0 0 0 0 0 0 0 0 0 0 0 0 0 0 0 0 0.25 0"/>
<feBlend mode="normal" in2="BackgroundImageFix" result="effect1_dropShadow"/>
<feBlend mode="normal" in="SourceGraphic" in2="effect1_dropShadow" result="shape"/>
</filter>
<filter id="filter1_d" x="333.943" y="253.82" width="1385.61" height="325.817" filterUnits="userSpaceOnUse" color-interpolation-filters="sRGB">
<feFlood flood-opacity="0" result="BackgroundImageFix"/>
<feColorMatrix in="SourceAlpha" type="matrix" values="0 0 0 0 0 0 0 0 0 0 0 0 0 0 0 0 0 0 127 0"/>
<feOffset dy="4"/>
<feGaussianBlur stdDeviation="2"/>
<feColorMatrix type="matrix" values="0 0 0 0 0 0 0 0 0 0 0 0 0 0 0 0 0 0 0.25 0"/>
<feBlend mode="normal" in2="BackgroundImageFix" result="effect1_dropShadow"/>
<feBlend mode="normal" in="SourceGraphic" in2="effect1_dropShadow" result="shape"/>
</filter>
</defs>
</svg>
