<svg width="57" height="50" viewBox="0 0 57 50" fill="none" xmlns="http://www.w3.org/2000/svg">
<path d="M3 9C3 4.58172 6.58172 1 11 1H44C48.4183 1 52 4.58172 52 9V37H3V9Z" class="fillOnHover"/>
<path d="M11 3H44C46.7614 3 49 5.23858 49 8V14H52V8C52 3.58172 48.4183 0 44 0H11C6.58172 0 3 3.58172 3 8V36H34V33H6V8C6 5.23858 8.23858 3 11 3Z" fill="black"/>
<path d="M0 37C0 34.7909 1.79086 33 4 33H35V43H4C1.79086 43 0 41.2091 0 39V37Z" fill="#F6F6F8"/>
<path fill-rule="evenodd" clip-rule="evenodd" d="M32 36H4C3.44772 36 3 36.4477 3 37V39C3 39.5523 3.44772 40 4 40H32V36ZM4 33C1.79086 33 0 34.7909 0 37V39C0 41.2091 1.79086 43 4 43H35V33H4Z" fill="black"/>
<path fill-rule="evenodd" clip-rule="evenodd" d="M51 15H38C36.3431 15 35 16.3431 35 18V44C35 45.6569 36.3431 47 38 47H51C52.6569 47 54 45.6569 54 44V18C54 16.3431 52.6569 15 51 15Z" fill="white"/>
<path fill-rule="evenodd" clip-rule="evenodd" d="M51 15H38C36.3431 15 35 16.3431 35 18V44C35 45.6569 36.3431 47 38 47H51C52.6569 47 54 45.6569 54 44V18C54 16.3431 52.6569 15 51 15ZM38 12C34.6863 12 32 14.6863 32 18V44C32 47.3137 34.6863 50 38 50H51C54.3137 50 57 47.3137 57 44V18C57 14.6863 54.3137 12 51 12H38Z" fill="black"/>
<path fill-rule="evenodd" clip-rule="evenodd" d="M40.5 44C40.5 43.1716 41.1716 42.5 42 42.5H47C47.8284 42.5 48.5 43.1716 48.5 44C48.5 44.8284 47.8284 45.5 47 45.5H42C41.1716 45.5 40.5 44.8284 40.5 44Z" fill="black"/>
</svg>
