<svg width="52" height="52" viewBox="0 0 52 52" fill="none" xmlns="http://www.w3.org/2000/svg">
<path fill-rule="evenodd" clip-rule="evenodd" d="M8 3C5.23858 3 3 5.23858 3 8V44C3 46.7614 5.23858 49 8 49H44C46.7614 49 49 46.7614 49 44V8C49 5.23858 46.7614 3 44 3H8Z" class="fillOnHover"/>
<path fill-rule="evenodd" clip-rule="evenodd" d="M8 3C5.23858 3 3 5.23858 3 8V44C3 46.7614 5.23858 49 8 49H44C46.7614 49 49 46.7614 49 44V8C49 5.23858 46.7614 3 44 3H8ZM8 0C3.58172 0 0 3.58172 0 8V44C0 48.4183 3.58172 52 8 52H44C48.4183 52 52 48.4183 52 44V8C52 3.58172 48.4183 0 44 0H8Z" fill="black"/>
<path fill-rule="evenodd" clip-rule="evenodd" d="M11.8288 17.063C12.3463 16.4161 13.2902 16.3112 13.9371 16.8288L23.9371 24.8288C24.2929 25.1134 24.5001 25.5444 24.5001 26.0001C24.5001 26.4557 24.2929 26.8867 23.9371 27.1714L13.9371 35.1714C13.2902 35.6889 12.3463 35.584 11.8288 34.9371C11.3112 34.2902 11.4161 33.3463 12.063 32.8288L20.5989 26.0001L12.063 19.1714C11.4161 18.6538 11.3112 17.7099 11.8288 17.063Z" fill="black"/>
<path fill-rule="evenodd" clip-rule="evenodd" d="M29.5 26C29.5 25.1716 30.1716 24.5 31 24.5H41C41.8284 24.5 42.5 25.1716 42.5 26C42.5 26.8284 41.8284 27.5 41 27.5H31C30.1716 27.5 29.5 26.8284 29.5 26Z" fill="black"/>
</svg>
