<svg width="54" height="52" viewBox="0 0 54 52" fill="none" xmlns="http://www.w3.org/2000/svg">
<rect x="3" y="3" width="48" height="10" class="fillOnHover"/>
<path fill-rule="evenodd" clip-rule="evenodd" d="M46 3H8C5.23858 3 3 5.23858 3 8V44C3 46.7614 5.23858 49 8 49H46C48.7614 49 51 46.7614 51 44V8C51 5.23858 48.7614 3 46 3ZM8 0C3.58172 0 0 3.58172 0 8V44C0 48.4183 3.58172 52 8 52H46C50.4183 52 54 48.4183 54 44V8C54 3.58172 50.4183 0 46 0H8Z" fill="black"/>
<path fill-rule="evenodd" clip-rule="evenodd" d="M20.5 26C20.5 25.1716 21.1716 24.5 22 24.5H32C32.8284 24.5 33.5 25.1716 33.5 26C33.5 26.8284 32.8284 27.5 32 27.5H22C21.1716 27.5 20.5 26.8284 20.5 26Z" fill="black"/>
<path fill-rule="evenodd" clip-rule="evenodd" d="M20.5 39C20.5 38.1716 21.1716 37.5 22 37.5H32C32.8284 37.5 33.5 38.1716 33.5 39C33.5 39.8284 32.8284 40.5 32 40.5H22C21.1716 40.5 20.5 39.8284 20.5 39Z" fill="black"/>
<path fill-rule="evenodd" clip-rule="evenodd" d="M13.5 33C13.5 32.1716 14.1716 31.5 15 31.5H39C39.8284 31.5 40.5 32.1716 40.5 33C40.5 33.8284 39.8284 34.5 39 34.5H15C14.1716 34.5 13.5 33.8284 13.5 33Z" fill="black"/>
<circle cx="9" cy="8" r="2" fill="black"/>
<circle cx="15" cy="8" r="2" fill="black"/>
<circle cx="21" cy="8" r="2" fill="black"/>
<path fill-rule="evenodd" clip-rule="evenodd" d="M54 15.5H0V12.5H54V15.5Z" fill="black"/>
</svg>
