<svg width="50" height="50" viewBox="0 0 50 50" fill="none" xmlns="http://www.w3.org/2000/svg">
<path d="M0 5C0 2.23858 2.23858 0 5 0H16C18.7614 0 21 2.23858 21 5V16C21 18.7614 18.7614 21 16 21H5C2.23858 21 0 18.7614 0 16V5Z" class="fillOnHover" />
<path fill-rule="evenodd" clip-rule="evenodd" d="M16.1539 3H5C3.89543 3 3 3.89543 3 5V16.1538C3 17.2584 3.89543 18.1538 5 18.1538H16.1538C17.2584 18.1538 18.1538 17.2584 18.1538 16.1539V5C18.1538 3.89543 17.2584 3 16.1539 3ZM5 0C2.23858 0 0 2.23857 0 5V16.1538C0 18.9153 2.23857 21.1538 5 21.1538H16.1538C18.9153 21.1538 21.1538 18.9153 21.1538 16.1539V5C21.1538 2.23858 18.9153 0 16.1539 0H5Z" fill="black"/>
<path fill-rule="evenodd" clip-rule="evenodd" d="M16.1539 31.8462H5C3.89543 31.8462 3 32.7416 3 33.8462V45C3 46.1046 3.89543 47 5 47H16.1538C17.2584 47 18.1538 46.1046 18.1538 45V33.8462C18.1538 32.7416 17.2584 31.8462 16.1539 31.8462ZM5 28.8462C2.23858 28.8462 0 31.0848 0 33.8462V45C0 47.7615 2.23857 50 5 50H16.1538C18.9153 50 21.1538 47.7615 21.1538 45V33.8462C21.1538 31.0848 18.9153 28.8462 16.1539 28.8462H5Z" fill="black"/>
<path fill-rule="evenodd" clip-rule="evenodd" d="M45 3H33.8462C32.7416 3 31.8462 3.89543 31.8462 5V16.1538C31.8462 17.2584 32.7416 18.1538 33.8462 18.1538H45C46.1046 18.1538 47 17.2584 47 16.1539V5C47 3.89543 46.1046 3 45 3ZM33.8462 0C31.0848 0 28.8462 2.23857 28.8462 5V16.1538C28.8462 18.9153 31.0848 21.1538 33.8462 21.1538H45C47.7615 21.1538 50 18.9153 50 16.1539V5C50 2.23858 47.7615 0 45 0H33.8462Z" fill="black"/>
<circle cx="38.4616" cy="37.4999" r="8.11539" fill="#F6F6F8" stroke="black" stroke-width="3"/>
<path fill-rule="evenodd" clip-rule="evenodd" d="M42.6893 42.6893C43.2751 42.1036 44.2249 42.1036 44.8107 42.6893L49.1376 47.0163C49.7234 47.602 49.7234 48.5518 49.1376 49.1376C48.5518 49.7234 47.602 49.7234 47.0163 49.1376L42.6893 44.8107C42.1036 44.2249 42.1036 43.2751 42.6893 42.6893Z" fill="black"/>
</svg>
