<svg width="52" height="52" viewBox="0 0 52 52" fill="none" xmlns="http://www.w3.org/2000/svg">
<path d="M19 41.9577C19 28.7262 29.5773 18 42.625 18C45.758 18 48.7485 18.6184 51.4844 19.7415L49.9844 44.4427L45.9844 49.9427L20.5245 50.4428C19.5393 47.8053 19 44.9454 19 41.9577Z" class="fillOnHover"/>
<circle cx="15.6562" cy="15.6562" r="3" fill="black"/>
<path fill-rule="evenodd" clip-rule="evenodd" d="M52 44C52 48.4183 48.4183 52 44 52H8C3.58172 52 0 48.4183 0 44V8C0 3.58172 3.58172 0 8 0H44C48.4183 0 52 3.58172 52 8V44ZM8 3H44C46.7614 3 49 5.23858 49 8V16.2196C47.1148 15.7895 45.1539 15.5625 43.1406 15.5625C28.4619 15.5625 16.5625 27.6295 16.5625 42.515C16.5625 44.7507 16.8309 46.9228 17.3369 49H8C5.23858 49 3 46.7614 3 44V8C3 5.23858 5.23858 3 8 3ZM20.3913 49H44C46.7614 49 49 46.7614 49 44V19.2998C47.1264 18.815 45.1632 18.5572 43.1406 18.5572C30.0929 18.5572 19.5156 29.2835 19.5156 42.515C19.5156 44.7623 19.8208 46.9375 20.3913 49Z" fill="black"/>
</svg>
